<svg width="21" height="24" viewBox="0 0 21 24" fill="none" xmlns="http://www.w3.org/2000/svg">
<path d="M16.546 8.244C16.2773 6.52867 15.6987 5.237 14.81 4.369C13.942 3.501 12.7847 3.05667 11.338 3.036C10.2633 3.036 9.323 3.284 8.517 3.78C7.711 4.276 7.03933 4.93733 6.502 5.764C5.98533 6.59067 5.59267 7.531 5.324 8.585C5.076 9.639 4.952 10.724 4.952 11.84C4.952 13.6173 5.2 15.1983 5.696 16.583C6.21267 17.947 6.95667 19.0217 7.928 19.807C8.89933 20.5923 10.0773 20.985 11.462 20.985C12.764 20.985 14.0557 20.6543 15.337 19.993C16.6183 19.311 17.693 18.3707 18.561 17.172L20.049 18.536C19.0363 19.9207 17.972 20.9747 16.856 21.698C15.74 22.4007 14.6447 22.876 13.57 23.124C12.516 23.372 11.5653 23.496 10.718 23.496C9.12667 23.496 7.68 23.217 6.378 22.659C5.076 22.0803 3.94967 21.295 2.999 20.303C2.069 19.2903 1.34567 18.1227 0.829 16.8C0.333 15.4567 0.085 14.01 0.085 12.46C0.085 11.0547 0.312333 9.65967 0.767 8.275C1.22167 6.89033 1.89333 5.64 2.782 4.524C3.69133 3.38733 4.828 2.48833 6.192 1.827C7.556 1.145 9.137 0.803999 10.935 0.803999C11.741 0.803999 12.6193 0.938333 13.57 1.207C14.5413 1.455 15.4507 1.827 16.298 2.323L16.174 1.021H18.561V8.244H16.546Z" fill="black"/>
</svg>
