<svg width="26" height="26" viewBox="0 0 26 26" fill="none" xmlns="http://www.w3.org/2000/svg">
<path d="M8.62745 8.62502C9.1156 8.13687 9.90706 8.13687 10.3952 8.62502L13.0025 11.2323L15.6096 8.62502C16.0979 8.13687 16.8893 8.13687 17.3775 8.62502C17.8656 9.11318 17.8656 9.90463 17.3775 10.3928L14.7703 13L17.3775 15.6073C17.8656 16.0954 17.8656 16.8869 17.3775 17.375C16.8893 17.8631 16.0979 17.8631 15.6096 17.375L13.0025 14.7678L10.3952 17.375C9.90705 17.8631 9.1156 17.8631 8.62744 17.375C8.13929 16.8869 8.13929 16.0954 8.62744 15.6073L11.2346 13L8.62745 10.3928C8.13929 9.90463 8.13929 9.11318 8.62745 8.62502Z" fill="#272937"/>
<path fill-rule="evenodd" clip-rule="evenodd" d="M25.5025 13C25.5025 19.9035 19.906 25.5 13.0025 25.5C6.09889 25.5 0.502441 19.9035 0.502441 13C0.502441 6.09644 6.09889 0.5 13.0025 0.5C19.906 0.5 25.5025 6.09644 25.5025 13ZM23.0025 13C23.0025 18.5229 18.5253 23 13.0025 23C7.4796 23 3.00244 18.5229 3.00244 13C3.00244 7.47715 7.4796 3 13.0025 3C18.5253 3 23.0025 7.47715 23.0025 13Z" fill="#272937"/>
</svg>
