<svg width="24" height="24" viewBox="0 0 24 24" fill="none" xmlns="http://www.w3.org/2000/svg">
<path d="M17.6585 4.92864C18.049 4.53812 18.6822 4.53811 19.0727 4.92864C19.4632 5.31916 19.4632 5.95233 19.0727 6.34285L13.4158 11.9998L19.0727 17.6566C19.4632 18.0471 19.4632 18.6803 19.0727 19.0708C18.6822 19.4613 18.049 19.4613 17.6585 19.0708L12.0016 13.414L6.34481 19.0708C6.3387 19.0769 6.33254 19.0829 6.32632 19.0888C5.93455 19.4612 5.31501 19.4552 4.93059 19.0708C4.6377 18.7779 4.56447 18.3485 4.71092 17.9874C4.75973 17.867 4.83296 17.7542 4.93059 17.6566L10.5874 11.9998L4.93059 6.3429C4.54006 5.95238 4.54006 5.31921 4.93059 4.92869C5.32111 4.53816 5.95428 4.53816 6.3448 4.92869L12.0016 10.5855L17.6585 4.92864Z" fill="white"/>
</svg>
