<svg width="19" height="19" viewBox="0 0 19 19" fill="none" xmlns="http://www.w3.org/2000/svg">
<path fill-rule="evenodd" clip-rule="evenodd" d="M18.0858 6.4144C18.8668 5.63335 18.8668 4.36702 18.0858 3.58597L15.4142 0.914401C14.6332 0.133351 13.3668 0.133351 12.5858 0.914401L0.58579 12.9144C0.21071 13.2894 0 13.7981 0 14.3286V18.0001C0 18.5524 0.44772 19.0001 1 19.0001H4.67157C5.20201 19.0001 5.71071 18.7894 6.08579 18.4144L18.0858 6.4144ZM10.8184 5.51023L13.4899 8.18184L4.67157 17.0001H2V14.3286L10.8184 5.51023ZM14.9042 6.76759L12.2326 4.09602L14 2.32861L16.6716 5.00018L14.9042 6.76759Z" fill="#95E1D3"/>
</svg>
