<svg width="19" height="19" viewBox="0 0 19 19" fill="none" xmlns="http://www.w3.org/2000/svg">
<path d="M8.99895 4.37688C6.44495 4.37688 4.37595 6.44688 4.37595 8.99988C4.37595 11.5539 6.44495 13.6239 8.99895 13.6239C11.551 13.6239 13.622 11.5539 13.622 8.99988C13.622 6.44688 11.551 4.37688 8.99895 4.37688ZM8.99895 12.0039C7.33995 12.0039 5.99495 10.6589 5.99495 9.00088C5.99495 7.34188 7.33995 5.99788 8.99895 5.99788C10.658 5.99788 12.001 7.34188 12.001 9.00088C12.001 10.6589 10.658 12.0039 8.99895 12.0039Z" fill="#FFB649"/>
<path d="M13.806 5.28488C14.4013 5.28488 14.884 4.80225 14.884 4.20688C14.884 3.61152 14.4013 3.12888 13.806 3.12888C13.2106 3.12888 12.728 3.61152 12.728 4.20688C12.728 4.80225 13.2106 5.28488 13.806 5.28488Z" fill="#FFB649"/>
<path d="M17.533 3.11088C17.064 1.90188 16.109 0.945883 14.9 0.478883C14.201 0.215883 13.462 0.0748827 12.714 0.0588827C11.751 0.0168827 11.446 0.00488281 9.00395 0.00488281C6.56195 0.00488281 6.24895 0.00488271 5.29395 0.0588827C4.54795 0.0738827 3.80895 0.214883 3.10995 0.478883C1.89995 0.945883 0.944953 1.90188 0.476953 3.11088C0.213953 3.81088 0.0729531 4.54888 0.0579531 5.29688C0.0149531 6.25888 0.00195312 6.56388 0.00195312 9.00688C0.00195312 11.4489 0.00195312 11.7599 0.0579531 12.7169C0.0729531 13.4649 0.213953 14.2029 0.476953 14.9039C0.945953 16.1119 1.90095 17.0679 3.11095 17.5359C3.80695 17.8079 4.54595 17.9619 5.29595 17.9859C6.25895 18.0279 6.56395 18.0409 9.00595 18.0409C11.448 18.0409 11.761 18.0409 12.716 17.9859C13.463 17.9709 14.202 17.8289 14.902 17.5669C16.111 17.0979 17.066 16.1429 17.535 14.9339C17.798 14.2339 17.939 13.4959 17.954 12.7479C17.997 11.7859 18.01 11.4809 18.01 9.03788C18.01 6.59488 18.01 6.28488 17.954 5.32788C17.941 4.56988 17.801 3.81888 17.533 3.11088ZM16.315 12.6429C16.308 13.2189 16.204 13.7899 16.004 14.3309C15.699 15.1179 15.078 15.7399 14.292 16.0419C13.757 16.2409 13.193 16.3449 12.622 16.3529C11.672 16.3969 11.404 16.4079 8.96795 16.4079C6.52995 16.4079 6.28095 16.4079 5.31295 16.3529C4.74395 16.3459 4.17795 16.2409 3.64395 16.0419C2.85495 15.7409 2.22995 15.1189 1.92495 14.3309C1.72895 13.7969 1.62295 13.2319 1.61395 12.6619C1.57095 11.7119 1.56095 11.4439 1.56095 9.00788C1.56095 6.57088 1.56095 6.32188 1.61395 5.35288C1.62095 4.77688 1.72495 4.20688 1.92495 3.66588C2.22995 2.87688 2.85495 2.25588 3.64395 1.95388C4.17795 1.75588 4.74395 1.65088 5.31295 1.64288C6.26395 1.59988 6.53095 1.58788 8.96795 1.58788C11.405 1.58788 11.655 1.58788 12.622 1.64288C13.193 1.64988 13.757 1.75488 14.292 1.95388C15.078 2.25688 15.699 2.87888 16.004 3.66588C16.2 4.19988 16.306 4.76488 16.315 5.33488C16.358 6.28588 16.369 6.55288 16.369 8.98988C16.369 11.4259 16.369 11.6879 16.326 12.6439H16.315V12.6429Z" fill="#FFB649"/>
</svg>
