<svg width="18" height="18" viewBox="0 0 18 18" fill="none" xmlns="http://www.w3.org/2000/svg">
<path fill-rule="evenodd" clip-rule="evenodd" d="M0 16C0 17.1046 0.89543 18 2 18H16C17.1046 18 18 17.1046 18 16V5.82843C18 5.298 17.7893 4.78929 17.4142 4.41421L13.5858 0.58579C13.2107 0.21071 12.702 0 12.1716 0H2C0.89543 0 0 0.89543 0 2V16ZM2 2V16H4V13C4 11.8954 4.89543 11 6 11H12C13.1046 11 14 11.8954 14 13V16H16V5.82843L13 2.82843V5C13 6.10457 12.1046 7 11 7H6C4.89543 7 4 6.10457 4 5V2H2ZM6 2V5H11V2H6ZM12 16V13H6V16H12Z" fill="white"/>
</svg>
