<svg width="22" height="21" viewBox="0 0 22 21" fill="none" xmlns="http://www.w3.org/2000/svg">
<path d="M0.730608 4.02762C0.391358 4.46397 0.521318 5.08759 0.982678 5.39194C1.44344 5.69589 2.05993 5.56574 2.4047 5.13467C3.33032 3.97734 4.48482 3.01105 5.79962 2.30438C6.28606 2.04294 6.52579 1.45987 6.31 0.951524C6.09408 0.442844 5.50439 0.202234 5.01404 0.457034C4.90942 0.511394 4.80564 0.567134 4.70271 0.624224C3.15883 1.48067 1.80764 2.64229 0.730608 4.02762Z" fill="#272937"/>
<path d="M21.1741 5.26384C21.5035 4.93461 21.5658 4.40943 21.269 4.02762C20.1202 2.54994 18.6594 1.32679 16.9856 0.457033C16.9243 0.425183 16.8614 0.401073 16.798 0.384263C16.3536 0.266573 15.8785 0.506433 15.6896 0.951523C15.4738 1.45987 15.7136 2.04294 16.2 2.30439C17.5148 3.01105 18.6693 3.97734 19.5949 5.13467C19.9397 5.56574 20.5562 5.6959 21.0169 5.39194C21.0746 5.3539 21.1271 5.31087 21.1741 5.26384Z" fill="#272937"/>
<path d="M10.4998 12.8661C10.1904 12.6875 9.99982 12.3574 9.99982 12.0001V9.00005C9.99982 8.44777 10.4475 8.00006 10.9998 8.00006C11.5521 8.00006 11.9998 8.44777 11.9998 9.00005V11.4228L14.5309 12.8841C15.0092 13.1602 15.1731 13.7718 14.8969 14.2501C14.6208 14.7284 14.0092 14.8923 13.5309 14.6161L10.4998 12.8661Z" fill="#272937"/>
<path fill-rule="evenodd" clip-rule="evenodd" d="M19.9998 12C19.9998 16.9706 15.9704 21 10.9998 21C6.02925 21 1.99981 16.9706 1.99981 12C1.99981 7.02949 6.02925 3.00005 10.9998 3.00005C15.9704 3.00005 19.9998 7.02949 19.9998 12ZM17.9998 12C17.9998 15.866 14.8658 19 10.9998 19C7.13382 19 3.99981 15.866 3.99981 12C3.99981 8.13406 7.13382 5.00005 10.9998 5.00005C14.8658 5.00005 17.9998 8.13406 17.9998 12Z" fill="#272937"/>
</svg>
