<svg width="22" height="13" viewBox="0 0 22 13" fill="none" xmlns="http://www.w3.org/2000/svg">
<path d="M13.9377 2H17.5945L12.0087 7.5858L8.71586 4.2929C8.52833 4.1054 8.27397 4 8.00876 4C7.74354 4 7.48918 4.1054 7.30165 4.2929L1.00871 10.5858C0.959903 10.6346 0.917193 10.6873 0.880573 10.7427C0.624293 11.1309 0.667003 11.6583 1.00871 12.0001C1.39924 12.3906 2.0324 12.3906 2.42293 12.0001L8.00875 6.4142L11.3016 9.7071C11.4892 9.8947 11.7435 10 12.0087 10C12.2739 10 12.5283 9.8947 12.7158 9.7071L19.0087 3.41421V7.0711C19.0087 7.6234 19.4565 8.0711 20.0087 8.0711C20.561 8.0711 21.0087 7.6233 21.0087 7.0711V1C21.0087 0.44772 20.561 0 20.0087 0H13.9377C13.8686 0 13.8012 0.00699994 13.7361 0.0203199C13.2804 0.11356 12.9377 0.51675 12.9377 1C12.9377 1.55229 13.3854 2 13.9377 2Z" fill="#272937"/>
</svg>
