<svg width="12" height="7" viewBox="0 0 12 7" fill="none" xmlns="http://www.w3.org/2000/svg">
<path d="M2.41707 0.999891L6.0029 4.58569L9.5887 0.999891C9.9792 0.609411 10.6123 0.609411 11.0029 0.999891C11.0517 1.04879 11.0944 1.10139 11.131 1.15679C11.3873 1.54499 11.3446 2.07249 11.0029 2.41419L6.71 6.70709C6.5224 6.89459 6.2681 6.99989 6.0029 6.99989C5.7376 6.99989 5.4833 6.89459 5.2958 6.70709L1.00285 2.41419C0.612331 2.02359 0.612331 1.39049 1.00285 0.999891C1.05167 0.951121 1.10428 0.908411 1.15973 0.871801C1.54788 0.615521 2.07536 0.658231 2.41707 0.999891Z" fill="#272937" fill-opacity="0.35"/>
</svg>
