<svg width="22" height="18" viewBox="0 0 22 18" fill="none" xmlns="http://www.w3.org/2000/svg">
<path fill-rule="evenodd" clip-rule="evenodd" d="M15.4835 0.20752C17.0773 0.20752 18.6061 0.839959 19.7341 1.966C20.8621 3.09204 21.4972 4.61967 21.5 6.21352C21.5 9.44748 20.3135 10.991 15.011 15.1805L12.2876 17.2944C11.5299 17.8825 10.4701 17.8825 9.7124 17.2944L6.989 15.1805C1.6865 10.991 0.5 9.44748 0.5 6.21352C0.50278 4.61967 1.13789 3.09204 2.2659 1.966C3.39391 0.839959 4.92264 0.20752 6.5165 0.20752C8.14236 0.21524 9.7014 0.85542 10.8635 1.99252L11 2.1213L11.1365 1.99252C12.2986 0.85542 13.8576 0.21524 15.4835 0.20752ZM10.2224 4.21439C10.2414 4.2323 10.2604 4.2502 10.2793 4.26806C10.6839 4.64985 11.316 4.64985 11.7206 4.26806C11.7396 4.25014 11.7586 4.23219 11.7776 4.21421C12.7018 3.34171 13.6791 2.41894 14.9351 2.24685C15.1175 2.22187 15.3022 2.20862 15.4882 2.20752C16.5505 2.20877 17.5692 2.63084 18.3211 3.38145C19.0736 4.13262 19.4975 5.15148 19.5 6.21465C19.4999 7.49918 19.2885 8.25578 18.6287 9.15918C17.8538 10.2204 16.4465 11.4971 13.7778 13.6059L11.0613 15.7144C11.0252 15.7424 10.9748 15.7424 10.9387 15.7144L8.22213 13.6059C5.55344 11.4971 4.14619 10.2204 3.37123 9.15918C2.71159 8.25588 2.5002 7.49948 2.5 6.21537C2.50229 5.15194 2.92623 4.13279 3.67888 3.38145C4.4308 2.63084 5.44945 2.20877 6.51177 2.20752C6.69754 2.20861 6.88202 2.22184 7.06414 2.24676C8.32047 2.41867 9.2981 3.34169 10.2224 4.21439Z" fill="#272937"/>
</svg>
