<svg width="19" height="18" viewBox="0 0 19 18" fill="none" xmlns="http://www.w3.org/2000/svg">
<path d="M8.0019 17C8.0019 17.5523 8.4497 18 9.0019 18C9.5542 18 10.0019 17.5523 10.0019 17V9.9999H17.0019C17.5542 9.9999 18.0019 9.5522 18.0019 8.9999C18.0019 8.4476 17.5542 7.9999 17.0019 7.9999H10.0019V1C10.0019 0.44772 9.5542 0 9.0019 0C8.4497 0 8.0019 0.44772 8.0019 1V7.9999H1.00195C0.449673 7.9999 0.00195312 8.4476 0.00195312 8.9999C0.00195312 9.5522 0.449673 9.9999 1.00195 9.9999H8.0019V17Z" fill="#272937" fill-opacity="0.35"/>
</svg>
