<svg width="18" height="18" viewBox="0 0 18 18" fill="none" xmlns="http://www.w3.org/2000/svg">
<path d="M8.16825 11.9167C8.16825 12.377 8.54134 12.7501 9.00159 12.7501C9.46175 12.7501 9.83492 12.377 9.83492 11.9167V9.83342H11.9183C12.3784 9.83342 12.7516 9.46033 12.7516 9.00008C12.7516 8.53983 12.3784 8.16675 11.9183 8.16675H9.83492V6.08342C9.83492 5.62318 9.46175 5.25008 9.00159 5.25008C8.54134 5.25008 8.16825 5.62318 8.16825 6.08342V8.16675H6.08488C5.62465 8.16675 5.25155 8.53983 5.25155 9.00008C5.25155 9.46033 5.62465 9.83342 6.08488 9.83342H8.16825V11.9167Z" fill="white"/>
<path fill-rule="evenodd" clip-rule="evenodd" d="M9.00159 17.3334C13.6039 17.3334 17.3349 13.6024 17.3349 9.00008C17.3349 4.39771 13.6039 0.666748 9.00159 0.666748C4.39918 0.666748 0.668213 4.39771 0.668213 9.00008C0.668213 13.6024 4.39918 17.3334 9.00159 17.3334ZM9.00159 15.6667C12.6834 15.6667 15.6683 12.682 15.6683 9.00008C15.6683 5.31818 12.6834 2.33341 9.00159 2.33341C5.31965 2.33341 2.33488 5.31818 2.33488 9.00008C2.33488 12.682 5.31965 15.6667 9.00159 15.6667Z" fill="white"/>
</svg>
