<svg width="19" height="19" viewBox="0 0 19 19" fill="none" xmlns="http://www.w3.org/2000/svg">
<path d="M12.5928 5.99997L10.007 3.41422V13C10.007 13.5523 9.55929 14 9.00699 14C8.45479 14 8.00699 13.5522 8.00699 13V3.41422L5.42121 6.00003C5.03069 6.39056 4.39752 6.39056 4.007 6.00003C3.95818 5.95122 3.91547 5.89861 3.87886 5.84316C3.62258 5.45501 3.66529 4.92753 4.007 4.58582L8.29989 0.29289C8.48749 0.10536 8.74179 0 9.00699 0C9.27229 0 9.52659 0.10536 9.71409 0.29289L14.007 4.58576C14.3975 4.97628 14.3975 5.60945 14.007 5.99997C13.6165 6.3905 12.9833 6.3905 12.5928 5.99997Z" fill="white"/>
<path d="M0.00683594 17.9999C0.00683594 17.4476 0.454546 16.9999 1.00684 16.9999H17.0068C17.5591 16.9999 18.0068 17.4476 18.0068 17.9999C18.0068 18.5522 17.5591 18.9999 17.0068 18.9999H1.00684C0.454546 18.9999 0.00683594 18.5522 0.00683594 17.9999Z" fill="white"/>
</svg>
