<svg width="19" height="19" viewBox="0 0 19 19" fill="none" xmlns="http://www.w3.org/2000/svg">
<path d="M12.5907 5.99997L10.005 3.41422V13C10.005 13.5522 9.5573 14 9.005 14C8.4527 14 8.005 13.5522 8.005 13V3.41422L5.41917 6.00003C5.02865 6.39056 4.39548 6.39056 4.00496 6.00003C3.95614 5.95122 3.91343 5.89861 3.87682 5.84316C3.62054 5.45501 3.66325 4.92753 4.00496 4.58582L8.2979 0.29289C8.4854 0.10536 8.7398 0 9.005 0C9.2702 0 9.5246 0.10536 9.7121 0.29289L14.005 4.58576C14.3955 4.97628 14.3955 5.60945 14.005 5.99997C13.6144 6.3905 12.9813 6.3905 12.5907 5.99997Z" fill="#272937" fill-opacity="0.35"/>
<path d="M1.00488 12.0001C1.55717 12.0001 2.00488 12.4478 2.00488 13.0001V17.0001H16.0049V13.0001C16.0049 12.4478 16.4526 12.0001 17.0049 12.0001C17.5572 12.0001 18.0049 12.4478 18.0049 13.0001V17.0001C18.0049 18.1047 17.1095 19.0001 16.0049 19.0001H2.00488C0.900313 19.0001 0.00488281 18.1047 0.00488281 17.0001V13.0001C0.00488281 12.4478 0.452603 12.0001 1.00488 12.0001Z" fill="#272937" fill-opacity="0.35"/>
</svg>
