<svg width="22" height="18" viewBox="0 0 22 18" fill="none" xmlns="http://www.w3.org/2000/svg">
<path fill-rule="evenodd" clip-rule="evenodd" d="M7.27376 16.0552C7.55471 16.0188 7.84021 16.0424 8.11135 16.1245L13.8887 17.8752C14.1598 17.9574 14.4453 17.981 14.7262 17.9445L20.2576 17.2262C21.2542 17.0967 22 16.2478 22 15.2428V3.27641C22 2.06957 20.9392 1.13764 19.7424 1.29307L14.7262 1.94452C14.4453 1.98101 14.1598 1.95739 13.8887 1.87522L8.11135 0.124532C7.84021 0.0423616 7.55471 0.0187417 7.27376 0.0552317L1.74242 0.773592C0.7458 0.903022 0 1.75193 0 2.75693V14.7233C0 15.9302 1.06078 16.8621 2.25758 16.7067L7.27376 16.0552ZM8.7 2.39272L13.3 3.78665V15.607L8.7 14.2131V2.39272ZM6.7 2.14654L2 2.75693V14.7233L6.7 14.113V2.14654ZM15.3 15.8532L20 15.2428V3.27641L15.3 3.8868V15.8532Z" fill="#272937"/>
</svg>
