<svg width="21" height="21" viewBox="0 0 21 21" fill="none" xmlns="http://www.w3.org/2000/svg">
<path fill-rule="evenodd" clip-rule="evenodd" d="M10.5858 0.58579C10.2107 0.21071 9.702 0 9.1716 0H2C0.89543 0 0 0.89543 0 2V9.1716C0 9.702 0.21071 10.2107 0.58579 10.5858L9.5858 19.5858C10.3668 20.3668 11.6332 20.3668 12.4142 19.5858L19.5858 12.4142C20.3668 11.6332 20.3668 10.3668 19.5858 9.5858L10.5858 0.58579ZM7 5.5C7 6.32843 6.32843 7 5.5 7C4.67157 7 4 6.32843 4 5.5C4 4.67157 4.67157 4 5.5 4C6.32843 4 7 4.67157 7 5.5Z" fill="#272937"/>
</svg>
