<svg width="24" height="16" viewBox="0 0 24 16" fill="none" xmlns="http://www.w3.org/2000/svg">
<path d="M12 6C12 7.1046 11.1046 8 10 8C8.89543 8 8 7.1046 8 6C8 4.89543 8.89543 4 10 4C11.1046 4 12 4.89543 12 6Z" fill="#272937"/>
<path fill-rule="evenodd" clip-rule="evenodd" d="M0 2C0 0.89543 0.895431 0 2 0H18C19.1046 0 20 0.89543 20 2V10C20 11.1046 19.1046 12 18 12H2C0.895431 12 0 11.1046 0 10V2ZM2 10V2H18V10H2Z" fill="#272937"/>
<path d="M20 14C21.1046 14 22 13.1046 22 12V5C22 4.44772 22.4477 4 23 4C23.5523 4 24 4.44772 24 5V12C24 14.2091 22.2091 16 20 16H4C3.44772 16 3 15.5523 3 15C3 14.4477 3.44772 14 4 14H20Z" fill="#272937"/>
</svg>
