<svg width="20" height="20" viewBox="0 0 20 20" fill="none" xmlns="http://www.w3.org/2000/svg">
<path d="M9.47591 14.95C9.19971 14.95 8.97591 14.7261 8.97591 14.45V8.58643C8.97591 8.31023 9.19971 8.08643 9.47591 8.08643H10.5181C10.7943 8.08643 11.0181 8.31023 11.0181 8.58643V14.45C11.0181 14.7261 10.7943 14.95 10.5181 14.95H9.47591Z" fill="#272937"/>
<path d="M10.0018 6.63715C9.6982 6.63715 9.4377 6.53647 9.2204 6.33512C9.0062 6.13058 8.8992 5.88608 8.8992 5.60164C8.8992 5.32039 9.0062 5.07909 9.2204 4.87774C9.4377 4.67319 9.6982 4.57092 10.0018 4.57092C10.3054 4.57092 10.5643 4.67319 10.7784 4.87774C10.9958 5.07909 11.1044 5.32039 11.1044 5.60164C11.1044 5.88608 10.9958 6.13058 10.7784 6.33512C10.5643 6.53647 10.3054 6.63715 10.0018 6.63715Z" fill="#272937"/>
<path fill-rule="evenodd" clip-rule="evenodd" d="M20 10C20 15.5228 15.5228 20 10 20C4.47715 20 0 15.5228 0 10C0 4.47715 4.47715 0 10 0C15.5228 0 20 4.47715 20 10ZM18 10C18 14.4183 14.4183 18 10 18C5.58172 18 2 14.4183 2 10C2 5.58172 5.58172 2 10 2C14.4183 2 18 5.58172 18 10Z" fill="#272937"/>
</svg>
